<svg width="5" height="20" viewBox="0 0 5 20" fill="none" xmlns="http://www.w3.org/2000/svg">
<path d="M2.56445 19.8906C2.10547 19.8906 1.71973 19.749 1.40723 19.4658C1.08496 19.1729 0.923828 18.7529 0.923828 18.2061C0.923828 17.6592 1.08496 17.2441 1.40723 16.9609C1.71973 16.668 2.10547 16.5215 2.56445 16.5215C3.01367 16.5215 3.39453 16.668 3.70703 16.9609C4.01953 17.2441 4.17578 17.6592 4.17578 18.2061C4.17578 18.7529 4.01953 19.1729 3.70703 19.4658C3.39453 19.749 3.01367 19.8906 2.56445 19.8906ZM2.56445 11.9805C2.10547 11.9805 1.71973 11.8389 1.40723 11.5557C1.08496 11.2627 0.923828 10.8428 0.923828 10.2959C0.923828 9.74902 1.08496 9.33398 1.40723 9.05078C1.71973 8.75781 2.10547 8.61133 2.56445 8.61133C3.01367 8.61133 3.39453 8.75781 3.70703 9.05078C4.01953 9.33398 4.17578 9.74902 4.17578 10.2959C4.17578 10.8428 4.01953 11.2627 3.70703 11.5557C3.39453 11.8389 3.01367 11.9805 2.56445 11.9805ZM2.56445 4.07031C2.10547 4.07031 1.71973 3.92871 1.40723 3.64551C1.08496 3.35254 0.923828 2.93262 0.923828 2.38574C0.923828 1.83887 1.08496 1.42383 1.40723 1.14063C1.71973 0.847656 2.10547 0.701172 2.56445 0.701172C3.01367 0.701172 3.39453 0.847656 3.70703 1.14063C4.01953 1.42383 4.17578 1.83887 4.17578 2.38574C4.17578 2.93262 4.01953 3.35254 3.70703 3.64551C3.39453 3.92871 3.01367 4.07031 2.56445 4.07031Z" fill="black"/>
</svg>
