<svg width="24" height="22" viewBox="0 0 24 22" fill="none" xmlns="http://www.w3.org/2000/svg">
<g clip-path="url(#clip0_19_627)">
<path d="M2.15616 5.12808V14.8092H0.71712C0.32184 14.8094 0 14.4845 0 14.0906V1.61568L0.92664 0.38136C1.08432 0.17184 1.42824 0 1.69056 0H3.59208C3.85464 0 4.28592 0 4.5468 0H6.44832C6.71088 0 7.05456 0.17184 7.21248 0.38136L8.13888 1.61568H18.972C19.3658 1.61568 19.6874 1.93752 19.6874 2.33136V5.12808H10.2953L9.36888 3.89376C9.21096 3.68424 8.86728 3.51264 8.60472 3.51264H6.7032C6.44064 3.51264 6.01104 3.51264 5.74848 3.51264H3.84696C3.5844 3.51264 3.24072 3.68448 3.0828 3.89376L2.15616 5.12808Z" fill="#22124E"/>
<path d="M23.2829 8.63771H12.4517L11.5234 7.40651C11.3657 7.19723 11.0218 7.02539 10.7609 7.02539H8.85936C8.5968 7.02539 8.1672 7.02539 7.9032 7.02539H6.00312C5.74056 7.02539 5.39688 7.19723 5.23896 7.40651L4.31232 8.63771V21.1158C4.31232 21.5096 4.63416 21.8312 5.02632 21.8312H23.2826C23.6779 21.8312 23.9998 21.5094 23.9998 21.1158V9.35627C24 8.95955 23.6782 8.63771 23.2829 8.63771Z" fill="#22124E"/>
</g>
<defs>
<clipPath id="clip0_19_627">
<rect width="24" height="21.8311" fill="white"/>
</clipPath>
</defs>
</svg>
