<svg width="24" height="22" viewBox="0 0 24 22" fill="none" xmlns="http://www.w3.org/2000/svg">
<g clip-path="url(#clip0_136_3210)">
<path d="M2.15616 5.12808V14.8092H0.71712C0.32184 14.8094 0 14.4845 0 14.0906V1.61568L0.92664 0.38136C1.08432 0.17184 1.42824 0 1.69056 0H3.59208C3.85464 0 4.28592 0 4.5468 0H6.44832C6.71088 0 7.05456 0.17184 7.21248 0.38136L8.13888 1.61568H18.972C19.3658 1.61568 19.6874 1.93752 19.6874 2.33136V5.12808H10.2953L9.36888 3.89376C9.21096 3.68424 8.86728 3.51264 8.60472 3.51264H6.7032C6.44064 3.51264 6.01104 3.51264 5.74848 3.51264H3.84696C3.5844 3.51264 3.24072 3.68448 3.0828 3.89376L2.15616 5.12808Z" fill="#FBFBFB"/>
<path d="M23.2829 8.6376H12.4517L11.5234 7.4064C11.3657 7.19712 11.0218 7.02528 10.7609 7.02528H8.85942C8.59686 7.02528 8.16726 7.02528 7.90326 7.02528H6.00318C5.74062 7.02528 5.39694 7.19712 5.23902 7.4064L4.31238 8.6376V21.1157C4.31238 21.5095 4.63422 21.8311 5.02638 21.8311H23.2827C23.678 21.8311 23.9998 21.5093 23.9998 21.1157V9.35616C24.0001 8.95944 23.6782 8.6376 23.2829 8.6376Z" fill="#FBFBFB"/>
</g>
<defs>
<clipPath id="clip0_136_3210">
<rect width="24" height="21.8311" fill="white"/>
</clipPath>
</defs>
</svg>
