<svg width="100" height="91" viewBox="0 0 100 91" fill="none" xmlns="http://www.w3.org/2000/svg">
<g clip-path="url(#clip0_19_209)">
<path d="M8.984 21.367V61.705H2.988C1.341 61.706 0 60.352 0 58.711V6.732L3.861 1.589C4.518 0.716 5.951 0 7.044 0H14.967C16.061 0 17.858 0 18.945 0H26.868C27.962 0 29.394 0.716 30.052 1.589L33.912 6.732H79.05C80.691 6.732 82.031 8.073 82.031 9.714V21.367H42.897L39.037 16.224C38.379 15.351 36.947 14.636 35.853 14.636H27.93C26.836 14.636 25.046 14.636 23.952 14.636H16.029C14.935 14.636 13.503 15.352 12.845 16.224L8.984 21.367Z" fill="#22124E"/>
<path d="M97.012 35.99H51.882L48.014 30.86C47.357 29.988 45.924 29.272 44.837 29.272H36.914C35.82 29.272 34.03 29.272 32.93 29.272H25.013C23.919 29.272 22.487 29.988 21.829 30.86L17.968 35.99V87.982C17.968 89.623 19.309 90.963 20.943 90.963H97.011C98.658 90.963 99.999 89.622 99.999 87.982V38.984C100 37.331 98.659 35.99 97.012 35.99Z" fill="#22124E"/>
</g>
<defs>
<clipPath id="clip0_19_209">
<rect width="100" height="90.963" fill="white"/>
</clipPath>
</defs>
</svg>
