<svg width="25" height="25" viewBox="0 0 25 25" fill="none" xmlns="http://www.w3.org/2000/svg">
<g clip-path="url(#clip0_19_178)">
<path d="M12.4883 7.04821C12.6696 7.04821 12.8435 6.97619 12.9717 6.84799C13.0999 6.71979 13.1719 6.54592 13.1719 6.36461V4.59938C13.1719 4.41808 13.0999 4.24421 12.9717 4.11601C12.8435 3.98781 12.6696 3.91579 12.4883 3.91579C12.307 3.91579 12.1331 3.98781 12.0049 4.11601C11.8767 4.24421 11.8047 4.41808 11.8047 4.59938V6.36461C11.8047 6.54592 11.8767 6.71979 12.0049 6.84799C12.1331 6.97619 12.307 7.04821 12.4883 7.04821Z" fill="#22124E"/>
<path d="M20.4007 11.8047H18.6355C18.4542 11.8047 18.2803 11.8767 18.1521 12.0049C18.0239 12.1331 17.9519 12.307 17.9519 12.4883C17.9519 12.6696 18.0239 12.8435 18.1521 12.9717C18.2803 13.0999 18.4542 13.1719 18.6355 13.1719H20.4007C20.582 13.1719 20.7559 13.0999 20.8841 12.9717C21.0123 12.8435 21.0843 12.6696 21.0843 12.4883C21.0843 12.307 21.0123 12.1331 20.8841 12.0049C20.7559 11.8767 20.582 11.8047 20.4007 11.8047Z" fill="#22124E"/>
<path d="M6.36452 11.8047H4.59929C4.41799 11.8047 4.24411 11.8767 4.11592 12.0049C3.98772 12.1331 3.9157 12.307 3.9157 12.4883C3.9157 12.6696 3.98772 12.8435 4.11592 12.9717C4.24411 13.0999 4.41799 13.1719 4.59929 13.1719H6.36452C6.54582 13.1719 6.7197 13.0999 6.8479 12.9717C6.9761 12.8435 7.04812 12.6696 7.04812 12.4883C7.04812 12.307 6.9761 12.1331 6.8479 12.0049C6.7197 11.8767 6.54582 11.8047 6.36452 11.8047Z" fill="#22124E"/>
<path d="M1.21793 4.75825C1.3077 4.75825 1.39659 4.74056 1.47953 4.70621C1.56246 4.67186 1.63782 4.6215 1.7013 4.55803C1.76478 4.49455 1.81513 4.41919 1.84948 4.33625C1.88384 4.25331 1.90152 4.16442 1.90152 4.07465V2.10301H3.87297C4.05427 2.10301 4.22814 2.03099 4.35634 1.90279C4.48454 1.77459 4.55656 1.60072 4.55656 1.41942C4.55656 1.23812 4.48454 1.06424 4.35634 0.936045C4.22814 0.807846 4.05427 0.735825 3.87297 0.735825H1.21793C1.03663 0.735825 0.862751 0.807846 0.734552 0.936045C0.606354 1.06424 0.534332 1.23812 0.534332 1.41942V4.07465C0.534332 4.25595 0.606354 4.42983 0.734552 4.55803C0.862751 4.68623 1.03663 4.75825 1.21793 4.75825Z" fill="#22124E"/>
<path d="M23.7823 0.735825H21.1268C20.9455 0.735825 20.7717 0.807846 20.6435 0.936045C20.5153 1.06424 20.4432 1.23812 20.4432 1.41942C20.4432 1.60072 20.5153 1.77459 20.6435 1.90279C20.7717 2.03099 20.9455 2.10301 21.1268 2.10301H23.0987V4.07465C23.0987 4.25595 23.1707 4.42983 23.2989 4.55803C23.4271 4.68623 23.601 4.75825 23.7823 4.75825C23.9636 4.75825 24.1374 4.68623 24.2656 4.55803C24.3938 4.42983 24.4659 4.25595 24.4659 4.07465V1.41942C24.4659 1.23812 24.3938 1.06424 24.2656 0.936045C24.1374 0.807846 23.9636 0.735825 23.7823 0.735825Z" fill="#22124E"/>
<path d="M3.87297 23.0057H1.90152V21.034C1.90152 20.8527 1.8295 20.6789 1.7013 20.5507C1.5731 20.4225 1.39923 20.3504 1.21793 20.3504C1.03663 20.3504 0.862751 20.4225 0.734552 20.5507C0.606354 20.6789 0.534332 20.8527 0.534332 21.034V23.6893C0.534332 23.8706 0.606354 24.0444 0.734552 24.1726C0.862751 24.3008 1.03663 24.3729 1.21793 24.3729H3.87297C4.05427 24.3729 4.22814 24.3008 4.35634 24.1726C4.48454 24.0444 4.55656 23.8706 4.55656 23.6893C4.55656 23.508 4.48454 23.3341 4.35634 23.2059C4.22814 23.0777 4.05427 23.0057 3.87297 23.0057Z" fill="#22124E"/>
<path d="M23.7823 20.3504C23.601 20.3504 23.4271 20.4225 23.2989 20.5507C23.1707 20.6789 23.0987 20.8527 23.0987 21.034V23.0057H21.1268C20.9455 23.0057 20.7717 23.0777 20.6435 23.2059C20.5153 23.3341 20.4432 23.508 20.4432 23.6893C20.4432 23.8706 20.5153 24.0444 20.6435 24.1726C20.7717 24.3008 20.9455 24.3729 21.1268 24.3729H23.7823C23.9636 24.3729 24.1374 24.3008 24.2656 24.1726C24.3938 24.0444 24.4659 23.8706 24.4659 23.6893V21.034C24.4659 20.8527 24.3938 20.6789 24.2656 20.5507C24.1374 20.4225 23.9636 20.3504 23.7823 20.3504Z" fill="#22124E"/>
<path d="M12.4883 17.9518C12.307 17.9518 12.1331 18.0239 12.0049 18.1521C11.8767 18.2803 11.8047 18.4541 11.8047 18.6354V20.4007C11.8047 20.582 11.8767 20.7559 12.0049 20.8841C12.1331 21.0123 12.307 21.0843 12.4883 21.0843C12.6696 21.0843 12.8435 21.0123 12.9717 20.8841C13.0999 20.7559 13.1719 20.582 13.1719 20.4007V18.6354C13.1719 18.4541 13.0999 18.2803 12.9717 18.1521C12.8435 18.0239 12.6696 17.9518 12.4883 17.9518Z" fill="#22124E"/>
<path d="M12.5 1.50629C10.3257 1.50629 8.20014 2.15105 6.39224 3.35905C4.58434 4.56705 3.17526 6.28402 2.34317 8.29285C1.51108 10.3017 1.29337 12.5121 1.71756 14.6447C2.14175 16.7773 3.18879 18.7362 4.72628 20.2736C6.26377 21.8111 8.22265 22.8582 10.3552 23.2824C12.4878 23.7066 14.6982 23.4889 16.7071 22.6568C18.7159 21.8247 20.4329 20.4156 21.6409 18.6077C22.8489 16.7998 23.4937 14.6743 23.4937 12.5C23.4937 11.0563 23.2093 9.6267 22.6568 8.29288C22.1044 6.95906 21.2946 5.74712 20.2737 4.72626C19.2529 3.7054 18.0409 2.89561 16.7071 2.34312C15.3733 1.79064 13.9437 1.50628 12.5 1.50629ZM20.4007 14.1484H19.3095C19.006 15.4001 18.364 16.5441 17.4537 17.4552C16.5433 18.3663 15.3998 19.0093 14.1484 19.3138V20.4007C14.1484 20.841 13.9735 21.2633 13.6622 21.5746C13.3508 21.8859 12.9286 22.0609 12.4883 22.0609C12.048 22.0609 11.6257 21.8859 11.3144 21.5746C11.003 21.2633 10.8281 20.841 10.8281 20.4007V19.3109C9.57924 19.0047 8.43848 18.3613 7.5304 17.4509C6.62232 16.5405 5.98181 15.3981 5.67882 14.1484H4.59937C4.15907 14.1484 3.7368 13.9735 3.42546 13.6622C3.11412 13.3508 2.93921 12.9286 2.93921 12.4883C2.93921 12.048 3.11412 11.6257 3.42546 11.3144C3.7368 11.003 4.15907 10.8281 4.59937 10.8281H5.68484C5.99112 9.58354 6.6324 8.44661 7.53909 7.54069C8.44579 6.63477 9.58327 5.99447 10.8281 5.68926V4.59941C10.8281 4.15911 11.003 3.73684 11.3144 3.4255C11.6257 3.11416 12.048 2.93926 12.4883 2.93926C12.9286 2.93926 13.3508 3.11416 13.6622 3.4255C13.9735 3.73684 14.1484 4.15911 14.1484 4.59941V5.68636C15.3958 5.98993 16.536 6.62983 17.4449 7.53642C18.3539 8.44301 18.9967 9.58155 19.3035 10.8281H20.4007C20.841 10.8281 21.2633 11.003 21.5746 11.3144C21.8859 11.6257 22.0609 12.048 22.0609 12.4883C22.0609 12.9286 21.8859 13.3508 21.5746 13.6622C21.2633 13.9735 20.841 14.1484 20.4007 14.1484Z" fill="#22124E"/>
<path d="M16.2821 14.8878C15.8777 13.9996 15.1505 13.2985 14.2482 12.9268C14.1806 12.8978 14.1231 12.8495 14.0829 12.7879C14.0427 12.7263 14.0215 12.6543 14.0221 12.5807V12.5768C14.023 12.5247 14.0341 12.4733 14.055 12.4256C14.0759 12.3779 14.1061 12.3348 14.1437 12.2988C14.4776 11.9727 14.7068 11.5546 14.8021 11.0977C14.8974 10.6408 14.8545 10.1659 14.6787 9.7335C14.503 9.30113 14.2025 8.93089 13.8155 8.67C13.4285 8.4091 12.9726 8.26938 12.5059 8.26865C12.0392 8.26792 11.5828 8.40621 11.195 8.66589C10.8072 8.92556 10.5056 9.29486 10.3285 9.72668C10.1514 10.1585 10.107 10.6333 10.2008 11.0905C10.2947 11.5476 10.5226 11.9665 10.8555 12.2936C10.8939 12.33 10.9247 12.3737 10.9458 12.4223C10.9669 12.4708 10.978 12.5231 10.9784 12.576V12.5831C10.9784 12.656 10.9571 12.7274 10.917 12.7883C10.8769 12.8492 10.8197 12.897 10.7527 12.9258C9.84793 13.2991 9.1196 14.0034 8.71628 14.8952C8.60998 15.1203 8.52255 15.3537 8.45487 15.5933C8.42165 15.7134 8.41999 15.84 8.45004 15.961C8.48009 16.082 8.54085 16.1931 8.62644 16.2837C9.29446 16.9921 10.1447 17.5028 11.0839 17.7598C11.2316 17.5197 11.4385 17.3215 11.6847 17.1842C11.9309 17.0468 12.2082 16.9748 12.4901 16.9751C12.772 16.9754 13.0492 17.048 13.2951 17.1859C13.5409 17.3238 13.7474 17.5225 13.8946 17.7629C14.844 17.5052 15.7026 16.9878 16.3741 16.269C16.4589 16.1782 16.519 16.0672 16.5486 15.9466C16.5781 15.826 16.5762 15.6998 16.543 15.5801C16.4756 15.3424 16.3883 15.1108 16.2821 14.8878Z" fill="#22124E"/>
</g>
<defs>
<clipPath id="clip0_19_178">
<rect width="25" height="25" fill="white"/>
</clipPath>
</defs>
</svg>
