<svg width="25" height="25" viewBox="0 0 25 25" fill="none" xmlns="http://www.w3.org/2000/svg">
<g clip-path="url(#clip0_130_2750)">
<path d="M12.4883 7.04819C12.6696 7.04819 12.8435 6.97617 12.9717 6.84797C13.0999 6.71977 13.1719 6.5459 13.1719 6.3646V4.59937C13.1719 4.41806 13.0999 4.24419 12.9717 4.11599C12.8435 3.98779 12.6696 3.91577 12.4883 3.91577C12.307 3.91577 12.1331 3.98779 12.0049 4.11599C11.8767 4.24419 11.8047 4.41806 11.8047 4.59937V6.3646C11.8047 6.5459 11.8767 6.71977 12.0049 6.84797C12.1331 6.97617 12.307 7.04819 12.4883 7.04819Z" fill="#FBFBFB"/>
<path d="M20.4006 11.8047H18.6354C18.4541 11.8047 18.2802 11.8767 18.152 12.0049C18.0238 12.1331 17.9518 12.307 17.9518 12.4883C17.9518 12.6696 18.0238 12.8435 18.152 12.9717C18.2802 13.0999 18.4541 13.1719 18.6354 13.1719H20.4006C20.5819 13.1719 20.7558 13.0999 20.884 12.9717C21.0122 12.8435 21.0842 12.6696 21.0842 12.4883C21.0842 12.307 21.0122 12.1331 20.884 12.0049C20.7558 11.8767 20.5819 11.8047 20.4006 11.8047Z" fill="#FBFBFB"/>
<path d="M6.36448 11.8047H4.59924C4.41794 11.8047 4.24407 11.8767 4.11587 12.0049C3.98767 12.1331 3.91565 12.307 3.91565 12.4883C3.91565 12.6696 3.98767 12.8435 4.11587 12.9717C4.24407 13.0999 4.41794 13.1719 4.59924 13.1719H6.36448C6.54578 13.1719 6.71965 13.0999 6.84785 12.9717C6.97605 12.8435 7.04807 12.6696 7.04807 12.4883C7.04807 12.307 6.97605 12.1331 6.84785 12.0049C6.71965 11.8767 6.54578 11.8047 6.36448 11.8047Z" fill="#FBFBFB"/>
<path d="M1.2179 4.75826C1.30767 4.75826 1.39656 4.74058 1.4795 4.70623C1.56243 4.67187 1.63779 4.62152 1.70127 4.55804C1.76475 4.49456 1.8151 4.41921 1.84945 4.33627C1.88381 4.25333 1.90149 4.16444 1.90149 4.07467V2.10303H3.87293C4.05423 2.10303 4.22811 2.03101 4.35631 1.90281C4.48451 1.77461 4.55653 1.60073 4.55653 1.41943C4.55653 1.23813 4.48451 1.06426 4.35631 0.93606C4.22811 0.807861 4.05423 0.73584 3.87293 0.73584H1.2179C1.0366 0.73584 0.86272 0.807861 0.734522 0.93606C0.606323 1.06426 0.534302 1.23813 0.534302 1.41943V4.07467C0.534302 4.25597 0.606323 4.42984 0.734522 4.55804C0.86272 4.68624 1.0366 4.75826 1.2179 4.75826Z" fill="#FBFBFB"/>
<path d="M23.7823 0.73584H21.1268C20.9455 0.73584 20.7717 0.807861 20.6435 0.93606C20.5153 1.06426 20.4432 1.23813 20.4432 1.41943C20.4432 1.60073 20.5153 1.77461 20.6435 1.90281C20.7717 2.03101 20.9455 2.10303 21.1268 2.10303H23.0987V4.07467C23.0987 4.25597 23.1707 4.42984 23.2989 4.55804C23.4271 4.68624 23.601 4.75826 23.7823 4.75826C23.9636 4.75826 24.1374 4.68624 24.2656 4.55804C24.3938 4.42984 24.4659 4.25597 24.4659 4.07467V1.41943C24.4659 1.23813 24.3938 1.06426 24.2656 0.93606C24.1374 0.807861 23.9636 0.73584 23.7823 0.73584Z" fill="#FBFBFB"/>
<path d="M3.87293 23.0057H1.90149V21.0341C1.90149 20.8528 1.82947 20.6789 1.70127 20.5507C1.57307 20.4225 1.3992 20.3505 1.2179 20.3505C1.0366 20.3505 0.86272 20.4225 0.734522 20.5507C0.606323 20.6789 0.534302 20.8528 0.534302 21.0341V23.6893C0.534302 23.8706 0.606323 24.0445 0.734522 24.1727C0.86272 24.3009 1.0366 24.3729 1.2179 24.3729H3.87293C4.05423 24.3729 4.22811 24.3009 4.35631 24.1727C4.48451 24.0445 4.55653 23.8706 4.55653 23.6893C4.55653 23.508 4.48451 23.3341 4.35631 23.2059C4.22811 23.0777 4.05423 23.0057 3.87293 23.0057Z" fill="#FBFBFB"/>
<path d="M23.7823 20.3505C23.601 20.3505 23.4271 20.4225 23.2989 20.5507C23.1707 20.6789 23.0987 20.8528 23.0987 21.0341V23.0057H21.1268C20.9455 23.0057 20.7717 23.0777 20.6435 23.2059C20.5153 23.3341 20.4432 23.508 20.4432 23.6893C20.4432 23.8706 20.5153 24.0445 20.6435 24.1727C20.7717 24.3009 20.9455 24.3729 21.1268 24.3729H23.7823C23.9636 24.3729 24.1374 24.3009 24.2656 24.1727C24.3938 24.0445 24.4659 23.8706 24.4659 23.6893V21.0341C24.4659 20.8528 24.3938 20.6789 24.2656 20.5507C24.1374 20.4225 23.9636 20.3505 23.7823 20.3505Z" fill="#FBFBFB"/>
<path d="M12.4883 17.9519C12.307 17.9519 12.1331 18.0239 12.0049 18.1521C11.8767 18.2803 11.8047 18.4542 11.8047 18.6355V20.4008C11.8047 20.5821 11.8767 20.7559 12.0049 20.8841C12.1331 21.0123 12.307 21.0844 12.4883 21.0844C12.6696 21.0844 12.8435 21.0123 12.9717 20.8841C13.0999 20.7559 13.1719 20.5821 13.1719 20.4008V18.6355C13.1719 18.4542 13.0999 18.2803 12.9717 18.1521C12.8435 18.0239 12.6696 17.9519 12.4883 17.9519Z" fill="#FBFBFB"/>
<path d="M12.5 1.50635C10.3257 1.50635 8.20017 2.15111 6.39227 3.35911C4.58437 4.56711 3.17529 6.28409 2.3432 8.29291C1.51111 10.3017 1.2934 12.5122 1.71759 14.6448C2.14178 16.7773 3.18882 18.7362 4.72631 20.2737C6.2638 21.8112 8.22268 22.8582 10.3552 23.2824C12.4878 23.7066 14.6983 23.4889 16.7071 22.6569C18.7159 21.8248 20.4329 20.4157 21.6409 18.6078C22.8489 16.7999 23.4937 14.6744 23.4937 12.5001C23.4937 11.0563 23.2094 9.62677 22.6569 8.29294C22.1044 6.95912 21.2946 5.74718 20.2738 4.72632C19.2529 3.70546 18.041 2.89567 16.7071 2.34318C15.3733 1.7907 13.9437 1.50634 12.5 1.50635ZM20.4007 14.1485H19.3096C19.0061 15.4002 18.364 16.5442 17.4537 17.4552C16.5434 18.3663 15.3999 19.0093 14.1485 19.3138V20.4008C14.1485 20.8411 13.9736 21.2633 13.6622 21.5747C13.3509 21.886 12.9286 22.0609 12.4883 22.0609C12.048 22.0609 11.6257 21.886 11.3144 21.5747C11.0031 21.2633 10.8281 20.8411 10.8281 20.4008V19.3109C9.57927 19.0047 8.43852 18.3613 7.53043 17.4509C6.62235 16.5405 5.98185 15.3982 5.67885 14.1485H4.5994C4.1591 14.1485 3.73683 13.9736 3.42549 13.6622C3.11415 13.3509 2.93924 12.9286 2.93924 12.4883C2.93924 12.048 3.11415 11.6258 3.42549 11.3144C3.73683 11.0031 4.1591 10.8282 4.5994 10.8282H5.68487C5.99115 9.5836 6.63243 8.44667 7.53913 7.54075C8.44582 6.63483 9.58331 5.99453 10.8281 5.68932V4.59947C10.8281 4.15917 11.0031 3.7369 11.3144 3.42557C11.6257 3.11423 12.048 2.93932 12.4883 2.93932C12.9286 2.93932 13.3509 3.11423 13.6622 3.42557C13.9736 3.7369 14.1485 4.15917 14.1485 4.59947V5.68643C15.3958 5.98999 16.536 6.62989 17.445 7.53648C18.3539 8.44307 18.9967 9.58161 19.3035 10.8282H20.4007C20.841 10.8282 21.2633 11.0031 21.5746 11.3144C21.886 11.6258 22.0609 12.048 22.0609 12.4883C22.0609 12.9286 21.886 13.3509 21.5746 13.6622C21.2633 13.9736 20.841 14.1485 20.4007 14.1485Z" fill="#FBFBFB"/>
<path d="M16.282 14.8878C15.8776 13.9996 15.1505 13.2985 14.2481 12.9269C14.1805 12.8979 14.123 12.8495 14.0828 12.7879C14.0426 12.7264 14.0215 12.6543 14.0221 12.5807V12.5768C14.0229 12.5247 14.0341 12.4733 14.0549 12.4256C14.0758 12.3779 14.106 12.3348 14.1437 12.2988C14.4776 11.9727 14.7068 11.5546 14.802 11.0977C14.8973 10.6408 14.8544 10.1659 14.6787 9.73353C14.503 9.30116 14.2024 8.93092 13.8155 8.67003C13.4285 8.40913 12.9726 8.26941 12.5058 8.26868C12.0391 8.26795 11.5828 8.40624 11.195 8.66592C10.8072 8.9256 10.5055 9.29489 10.3284 9.72671C10.1514 10.1585 10.1069 10.6333 10.2008 11.0905C10.2946 11.5477 10.5225 11.9665 10.8554 12.2937C10.8939 12.33 10.9246 12.3738 10.9457 12.4223C10.9668 12.4708 10.9779 12.5231 10.9783 12.5761V12.5831C10.9784 12.656 10.957 12.7274 10.9169 12.7883C10.8768 12.8492 10.8197 12.8971 10.7526 12.9259C9.84786 13.2991 9.11952 14.0034 8.7162 14.8952C8.60991 15.1203 8.52247 15.3538 8.4548 15.5933C8.42157 15.7134 8.41991 15.8401 8.44996 15.961C8.48002 16.082 8.54078 16.1931 8.62636 16.2837C9.29438 16.9921 10.1446 17.5029 11.0838 17.7598C11.2316 17.5198 11.4384 17.3216 11.6846 17.1842C11.9308 17.0468 12.2081 16.9749 12.49 16.9752C12.7719 16.9755 13.0491 17.048 13.295 17.1859C13.5409 17.3239 13.7473 17.5225 13.8946 17.7629C14.8439 17.5052 15.7026 16.9879 16.374 16.269C16.4588 16.1783 16.5189 16.0673 16.5485 15.9466C16.5781 15.826 16.5761 15.6998 16.5429 15.5801C16.4755 15.3424 16.3882 15.1109 16.282 14.8878Z" fill="#FBFBFB"/>
</g>
<defs>
<clipPath id="clip0_130_2750">
<rect width="25" height="25" fill="white"/>
</clipPath>
</defs>
</svg>
