<svg width="25" height="25" viewBox="0 0 25 25" fill="none" xmlns="http://www.w3.org/2000/svg">
<path d="M21.875 4.68753H19.5312L18.75 3.12501C18.2898 2.21563 18.0508 1.56253 17.1875 1.56253H7.81247C6.9492 1.56253 6.66404 2.30785 6.24995 3.12501L5.46869 4.68753H3.12499C1.3992 4.68753 0 6.08673 0 7.81252V20.3125C0 22.0383 1.3992 23.4375 3.12499 23.4375H21.875C23.6008 23.4375 25 22.0383 25 20.3125V7.81252C24.9999 6.08677 23.6007 4.68753 21.875 4.68753ZM12.5 20.3125C9.04843 20.3125 6.24999 17.5141 6.24999 14.0626C6.24999 10.611 9.04843 7.81256 12.5 7.81256C15.9515 7.81256 18.75 10.611 18.75 14.0626C18.75 17.5141 15.9516 20.3125 12.5 20.3125Z" fill="#FBFBFB"/>
<path d="M12.5 9.37503C9.91095 9.37503 7.8125 11.4735 7.8125 14.0625C7.8125 16.6516 9.91095 18.7501 12.5 18.7501C15.0891 18.7501 17.1875 16.6516 17.1875 14.0625C17.1875 11.4734 15.0891 9.37503 12.5 9.37503Z" fill="#FBFBFB"/>
</svg>
