<svg width="25" height="25" viewBox="0 0 25 25" fill="none" xmlns="http://www.w3.org/2000/svg">
<path d="M21.875 4.68751H19.5312L18.75 3.12499C18.2898 2.21562 18.0508 1.56252 17.1875 1.56252H7.81247C6.9492 1.56252 6.66404 2.30783 6.24995 3.12499L5.46869 4.68751H3.12499C1.3992 4.68751 0 6.08671 0 7.81251V20.3125C0 22.0382 1.3992 23.4375 3.12499 23.4375H21.875C23.6008 23.4375 25 22.0383 25 20.3125V7.81251C24.9999 6.08675 23.6007 4.68751 21.875 4.68751ZM12.5 20.3125C9.04843 20.3125 6.24999 17.5141 6.24999 14.0625C6.24999 10.611 9.04843 7.81255 12.5 7.81255C15.9515 7.81255 18.75 10.611 18.75 14.0625C18.75 17.5141 15.9516 20.3125 12.5 20.3125Z" fill="#22124E"/>
<path d="M12.5 9.37502C9.91092 9.37502 7.81247 11.4735 7.81247 14.0625C7.81247 16.6516 9.91092 18.75 12.5 18.75C15.089 18.75 17.1875 16.6516 17.1875 14.0625C17.1875 11.4734 15.089 9.37502 12.5 9.37502Z" fill="#22124E"/>
</svg>
