<svg width="25" height="25" viewBox="0 0 25 25" fill="none" xmlns="http://www.w3.org/2000/svg">
<g clip-path="url(#clip0_18_149)">
<path d="M13.8476 13.8476L11.1575 11.1575C9.80995 12.5051 7.69812 17.312 7.69812 17.312C7.69812 17.312 12.5 15.1901 13.8476 13.8476Z" fill="#22124E"/>
<path d="M12.5 1.92075C6.63215 1.92075 1.92076 6.63214 1.92076 12.5C1.92076 18.3679 6.63215 23.0793 12.5 23.0793C18.3679 23.0793 23.0793 18.3679 23.0793 12.5C23.0793 6.63214 18.3679 1.92075 12.5 1.92075ZM14.5214 14.5214C12.7917 16.251 5.67182 19.2327 5.67182 19.2327C5.67182 19.2327 8.74906 12.1179 10.3832 10.3832C12.0174 8.65346 19.2278 5.67176 19.2278 5.67176C19.2278 5.67176 16.251 12.8821 14.5214 14.5214Z" fill="#22124E"/>
<path d="M12.5 0C5.57624 0 0 5.57624 0 12.5C0 19.4239 5.57624 25.0001 12.5 25.0001C19.4239 25.0001 25 19.4239 25 12.5C25 5.57624 19.4239 0 12.5 0ZM12.5 24.0397C6.15448 24.0397 0.96038 18.8456 0.96038 12.5C0.96038 6.15448 6.15448 0.96038 12.5 0.96038C18.8456 0.96038 24.0397 6.15448 24.0397 12.5C24.0397 18.8456 18.8456 24.0397 12.5 24.0397Z" fill="#22124E"/>
</g>
<defs>
<clipPath id="clip0_18_149">
<rect width="25" height="25" fill="white"/>
</clipPath>
</defs>
</svg>
