<svg width="19" height="23" viewBox="0 0 19 23" fill="none" xmlns="http://www.w3.org/2000/svg">
<path d="M14.7083 2.08333H17.8333C18.1096 2.08333 18.3746 2.19308 18.5699 2.38843C18.7653 2.58378 18.875 2.84873 18.875 3.125V21.875C18.875 22.1513 18.7653 22.4162 18.5699 22.6116C18.3746 22.8069 18.1096 22.9167 17.8333 22.9167H1.16667C0.890399 22.9167 0.625447 22.8069 0.430097 22.6116C0.234747 22.4162 0.125 22.1513 0.125 21.875V3.125C0.125 2.84873 0.234747 2.58378 0.430097 2.38843C0.625447 2.19308 0.890399 2.08333 1.16667 2.08333H4.29167V0H6.375V2.08333H12.625V0H14.7083V2.08333ZM4.29167 8.33333V10.4167H14.7083V8.33333H4.29167ZM4.29167 12.5V14.5833H14.7083V12.5H4.29167Z" fill="#22124E"/>
</svg>
