<svg width="27" height="22" viewBox="0 0 27 22" fill="none" xmlns="http://www.w3.org/2000/svg">
<path d="M12.9698 7.15796C8.92543 7.08904 4.74258 9.94404 2.11287 12.868C1.83683 13.1775 1.68408 13.5793 1.68408 13.996C1.68408 14.4126 1.83683 14.8145 2.11287 15.124C4.68539 17.9861 8.8562 20.907 12.9698 20.837C17.0834 20.907 21.2552 17.9861 23.8298 15.124C24.1058 14.8145 24.2586 14.4126 24.2586 13.996C24.2586 13.5793 24.1058 13.1775 23.8298 12.868C21.197 9.94404 17.0142 7.08904 12.9698 7.15796Z" stroke="#C8C8C8" stroke-width="2" stroke-linecap="round" stroke-linejoin="round"/>
<path d="M17.4178 13.9986C17.4176 14.8103 17.1767 15.6039 16.7255 16.2786C16.2745 16.9535 15.6333 17.4794 14.8834 17.7898C14.1333 18.1004 13.3081 18.1815 12.512 18.023C11.7158 17.8645 10.9846 17.4735 10.4107 16.8994C9.8368 16.3254 9.446 15.594 9.28771 14.7979C9.12943 14.0017 9.21077 13.1765 9.52147 12.4266C9.83216 11.6766 10.3582 11.0357 11.0332 10.5847C11.7082 10.1338 12.5017 9.89307 13.3134 9.89307C13.8525 9.89292 14.3864 9.99903 14.8846 10.2053C15.3826 10.4116 15.8352 10.714 16.2164 11.0953C16.5976 11.4766 16.8999 11.9292 17.106 12.4274C17.3122 12.9256 17.4182 13.4595 17.4178 13.9986Z" stroke="#C8C8C8" stroke-width="2" stroke-linecap="round" stroke-linejoin="round"/>
<path d="M14.3134 1C14.3134 0.447715 13.8656 2.41411e-08 13.3134 0C12.7611 -2.41411e-08 12.3134 0.447715 12.3134 1L14.3134 1ZM12.3134 1L12.3134 5.78853L14.3134 5.78853L14.3134 1L12.3134 1Z" fill="#C8C8C8"/>
<path d="M1.79416 3.8127C1.45854 3.3741 0.830897 3.29062 0.392294 3.62625C-0.0463098 3.96188 -0.129789 4.58951 0.205838 5.02812L1.79416 3.8127ZM0.205838 5.02812L3.11586 8.83099L4.70418 7.61557L1.79416 3.8127L0.205838 5.02812Z" fill="#C8C8C8"/>
<path d="M26.7605 5.75375C27.1191 5.33375 27.0694 4.70255 26.6494 4.3439C26.2294 3.98526 25.5982 4.035 25.2395 4.45499L26.7605 5.75375ZM25.2395 4.45499L22.13 8.09651L23.6509 9.39526L26.7605 5.75375L25.2395 4.45499Z" fill="#C8C8C8"/>
</svg>
