<svg width="93" height="68" viewBox="0 0 93 68" fill="none" xmlns="http://www.w3.org/2000/svg">
<path d="M26.1666 4.83333H92.8333V21.5H88.6666V25.6667H63.6666C62.5616 25.6667 61.5018 26.1056 60.7204 26.8871C59.939 27.6685 59.5 28.7283 59.5 29.8333V34C59.5 36.2101 58.622 38.3297 57.0592 39.8926C55.4964 41.4554 53.3768 42.3333 51.1666 42.3333H37.0833C35.5 42.3333 34.0416 43.25 33.3333 44.6667L23.125 65.0417C22.4166 66.4583 21 67.3333 19.4166 67.3333H5.33331C5.33331 67.3333 -7.16669 67.3333 9.49998 42.3333C9.49998 42.3333 22 25.6667 5.33331 25.6667V4.83333H9.49998L11.5833 0.666664H24.0833L26.1666 4.83333ZM55.3333 34V29.8333C55.3333 28.7283 54.8943 27.6685 54.1129 26.8871C53.3315 26.1056 52.2717 25.6667 51.1666 25.6667H47C47 25.6667 42.8333 29.8333 47 34C44.7898 34 42.6702 33.122 41.1074 31.5592C39.5446 29.9964 38.6666 27.8768 38.6666 25.6667C37.5616 25.6667 36.5018 26.1056 35.7204 26.8871C34.939 27.6685 34.5 28.7283 34.5 29.8333V34C34.5 35.1051 34.939 36.1649 35.7204 36.9463C36.5018 37.7277 37.5616 38.1667 38.6666 38.1667H51.1666C52.2717 38.1667 53.3315 37.7277 54.1129 36.9463C54.8943 36.1649 55.3333 35.1051 55.3333 34Z" fill="#22124E"/>
</svg>
