<svg width="25" height="19" viewBox="0 0 25 19" fill="none" xmlns="http://www.w3.org/2000/svg">
<path d="M6.87503 1.625H24.875V6.125H23.75V7.25H17C16.7017 7.25 16.4155 7.36853 16.2045 7.5795C15.9936 7.79048 15.875 8.07663 15.875 8.375V9.5C15.875 10.0967 15.638 10.669 15.216 11.091C14.7941 11.5129 14.2218 11.75 13.625 11.75H9.82253C9.39503 11.75 9.00128 11.9975 8.81003 12.38L6.05378 17.8813C5.86253 18.2638 5.48003 18.5 5.05253 18.5H1.25003C1.25003 18.5 -2.12497 18.5 2.37503 11.75C2.37503 11.75 5.75003 7.25 1.25003 7.25V1.625H2.37503L2.93753 0.5H6.31253L6.87503 1.625ZM14.75 9.5V8.375C14.75 8.07663 14.6315 7.79048 14.4205 7.5795C14.2096 7.36853 13.9234 7.25 13.625 7.25H12.5C12.5 7.25 11.375 8.375 12.5 9.5C11.9033 9.5 11.331 9.26295 10.909 8.84099C10.4871 8.41903 10.25 7.84674 10.25 7.25C9.95167 7.25 9.66552 7.36853 9.45454 7.5795C9.24356 7.79048 9.12503 8.07663 9.12503 8.375V9.5C9.12503 9.79837 9.24356 10.0845 9.45454 10.2955C9.66552 10.5065 9.95167 10.625 10.25 10.625H13.625C13.9234 10.625 14.2096 10.5065 14.4205 10.2955C14.6315 10.0845 14.75 9.79837 14.75 9.5Z" fill="#FBFBFB"/>
</svg>
