<svg width="15" height="15" viewBox="0 0 15 15" fill="none" xmlns="http://www.w3.org/2000/svg">
<path d="M5.625 0C5.4375 0 5.3125 0.0625 5.1875 0.1875L0.1875 5.1875C0.0625 5.3125 0 5.4375 0 5.625C0 5.8125 0.0625 5.9375 0.1875 6.0625L1.0625 6.9375C1.1875 7.0625 1.375 7.125 1.5 7.125C1.6875 7.125 1.8125 7.0625 1.9375 6.9375L3.1875 5.6875C3.375 5.5 3.75 5.625 3.75 5.9375V14.375C3.75 14.6875 4.0625 15 4.375 15H5.625C5.9375 15 6.25 14.6875 6.25 14.375V0.625C6.25 0.4375 6.1875 0.3125 6.0625 0.1875C5.9375 0.0625 5.8125 0 5.625 0Z" fill="#C8C8C8"/>
<path d="M14.8125 8.9375L13.9375 8.0625C13.8125 7.9375 13.625 7.875 13.5 7.875C13.3125 7.875 13.1875 7.9375 13.0625 8.0625L11.8125 9.3125C11.625 9.5 11.25 9.375 11.25 9.0625V0.625C11.25 0.3125 10.9375 0 10.625 0H9.375C9.0625 0 8.75 0.3125 8.75 0.625V14.375C8.75 14.5625 8.8125 14.6875 8.9375 14.8125C9.0625 14.9375 9.25 15 9.375 15C9.5625 15 9.6875 14.9375 9.8125 14.8125L14.8125 9.8125C14.9375 9.6875 15 9.5625 15 9.375C15 9.1875 14.9375 9.0625 14.8125 8.9375Z" fill="#C8C8C8"/>
</svg>
