<svg width="25" height="25" viewBox="0 0 25 25" fill="none" xmlns="http://www.w3.org/2000/svg">
<path d="M14.5 8.73249V5.49999C14.5001 5.16849 14.6318 4.8506 14.8663 4.61624L18.6163 0.866238C18.7563 0.726327 18.9276 0.621686 19.116 0.56093C19.3045 0.500174 19.5046 0.48504 19.7 0.516775C19.8954 0.54851 20.0805 0.626205 20.24 0.743465C20.3995 0.860724 20.5289 1.01419 20.6175 1.19124L21.6813 3.31874L23.8088 4.38124C23.986 4.46978 24.1397 4.59919 24.2571 4.75881C24.3745 4.91843 24.4523 5.10367 24.4841 5.29926C24.5158 5.49485 24.5006 5.69519 24.4397 5.88375C24.3788 6.0723 24.2739 6.24368 24.1338 6.38374L20.3838 10.1337C20.1494 10.3682 19.8315 10.4999 19.5 10.5H16.2675L12.8838 13.8837C12.648 14.1114 12.3322 14.2374 12.0045 14.2346C11.6768 14.2317 11.3632 14.1003 11.1315 13.8685C10.8997 13.6368 10.7683 13.3232 10.7654 12.9955C10.7626 12.6677 10.8886 12.352 11.1163 12.1162L14.5 8.73249ZM12 1.74999C12.3315 1.74999 12.6495 1.88168 12.8839 2.1161C13.1183 2.35052 13.25 2.66847 13.25 2.99999C13.25 3.33151 13.1183 3.64945 12.8839 3.88387C12.6495 4.11829 12.3315 4.24999 12 4.24999C10.2694 4.24999 8.5777 4.76317 7.13877 5.72463C5.69984 6.68609 4.57833 8.05265 3.91606 9.65151C3.25379 11.2504 3.08051 13.0097 3.41813 14.707C3.75575 16.4044 4.58911 17.9635 5.81282 19.1872C7.03653 20.4109 8.59563 21.2442 10.293 21.5819C11.9903 21.9195 13.7496 21.7462 15.3485 21.0839C16.9473 20.4217 18.3139 19.3002 19.2754 17.8612C20.2368 16.4223 20.75 14.7306 20.75 13C20.75 12.6685 20.8817 12.3505 21.1161 12.1161C21.3505 11.8817 21.6685 11.75 22 11.75C22.3315 11.75 22.6495 11.8817 22.8839 12.1161C23.1183 12.3505 23.25 12.6685 23.25 13C23.25 15.225 22.5902 17.4001 21.354 19.2502C20.1179 21.1002 18.3609 22.5422 16.3052 23.3936C14.2495 24.2451 11.9875 24.4679 9.80524 24.0338C7.62295 23.5997 5.61839 22.5283 4.04505 20.9549C2.47171 19.3816 1.40025 17.377 0.966171 15.1948C0.532087 13.0125 0.754874 10.7505 1.60636 8.6948C2.45785 6.63913 3.89979 4.88212 5.74984 3.64596C7.59989 2.40979 9.77496 1.74999 12 1.74999ZM12 6.74999C12.3315 6.74999 12.6495 6.88168 12.8839 7.11611C13.1183 7.35053 13.25 7.66847 13.25 7.99999C13.25 8.33151 13.1183 8.64945 12.8839 8.88387C12.6495 9.11829 12.3315 9.24999 12 9.24999C11.2583 9.24999 10.5333 9.46992 9.91662 9.88198C9.29993 10.294 8.81928 10.8797 8.53546 11.5649C8.25163 12.2501 8.17736 13.0041 8.32206 13.7316C8.46675 14.459 8.82391 15.1272 9.34835 15.6516C9.8728 16.1761 10.541 16.5332 11.2684 16.6779C11.9958 16.8226 12.7498 16.7484 13.4351 16.4645C14.1203 16.1807 14.706 15.7001 15.118 15.0834C15.5301 14.4667 15.75 13.7417 15.75 13C15.75 12.6685 15.8817 12.3505 16.1161 12.1161C16.3505 11.8817 16.6685 11.75 17 11.75C17.3315 11.75 17.6495 11.8817 17.8839 12.1161C18.1183 12.3505 18.25 12.6685 18.25 13C18.25 14.2361 17.8834 15.4445 17.1967 16.4723C16.5099 17.5001 15.5338 18.3012 14.3918 18.7742C13.2497 19.2473 11.9931 19.3711 10.7807 19.1299C9.56831 18.8887 8.45467 18.2935 7.58059 17.4194C6.70651 16.5453 6.11125 15.4317 5.8701 14.2193C5.62894 13.0069 5.75271 11.7503 6.22576 10.6082C6.69881 9.46618 7.49988 8.49006 8.52769 7.8033C9.5555 7.11654 10.7639 6.74999 12 6.74999ZM17 6.01749V7.99999H18.9825L21.14 5.84249L20.19 5.36749C19.9487 5.24634 19.7531 5.05031 19.6325 4.80874L19.1575 3.85999L17 6.01749Z" fill="#FBFBFB"/>
</svg>
