<svg width="61" height="29" viewBox="0 0 61 29" fill="none" xmlns="http://www.w3.org/2000/svg">
<path d="M14.9219 0.5625V29H9.57031V0.5625H14.9219ZM23.75 0.5625V4.80078H0.839844V0.5625H23.75ZM38.8477 0.5625H49.1797C51.3411 0.5625 53.1966 0.888021 54.7461 1.53906C56.2956 2.1901 57.487 3.15365 58.3203 4.42969C59.1536 5.70573 59.5703 7.27474 59.5703 9.13672C59.5703 10.6081 59.3099 11.8841 58.7891 12.9648C58.2682 14.0456 57.5326 14.9505 56.582 15.6797C55.6445 16.4089 54.5378 16.9818 53.2617 17.3984L51.582 18.2578H42.4609L42.4219 14.0195H49.2383C50.3451 14.0195 51.263 13.8242 51.9922 13.4336C52.7214 13.043 53.2682 12.5026 53.6328 11.8125C54.0104 11.1224 54.1992 10.3346 54.1992 9.44922C54.1992 8.4987 54.0169 7.67839 53.6523 6.98828C53.2878 6.28516 52.7344 5.74479 51.9922 5.36719C51.25 4.98958 50.3125 4.80078 49.1797 4.80078H44.2188V29H38.8477V0.5625ZM54.9023 29L48.3203 16.2656L54.0039 16.2461L60.6641 28.7266V29H54.9023Z" fill="white"/>
<path d="M33.0469 0.5625V29H27.6758V0.5625H33.0469Z" fill="#FFC452"/>
</svg>
