<svg width="24" height="24" viewBox="0 0 24 24" fill="none" xmlns="http://www.w3.org/2000/svg">
<g clip-path="url(#clip0_18_121)">
<path d="M4.80001 7.20006C5.68349 7.20006 6.43755 6.88767 7.06241 6.26264C7.68749 5.63765 8.00005 4.88337 8.00005 4.00006C8.00005 3.11685 7.68749 2.36257 7.06241 1.73749C6.43755 1.1125 5.68345 0.799942 4.80001 0.799942C3.91662 0.799942 3.16252 1.1125 2.53753 1.73749C1.91258 2.36257 1.60002 3.11667 1.60002 4.00006C1.60002 4.88354 1.91258 5.63765 2.53753 6.26264C3.16252 6.8875 3.91662 7.20006 4.80001 7.20006Z" fill="#22124E"/>
<path d="M8.6062 12.1942C9.54371 13.1314 10.6748 13.6002 12 13.6002C13.3253 13.6002 14.4563 13.1314 15.3938 12.1942C16.3311 11.2563 16.7999 10.1251 16.7999 8.80016C16.7999 7.47514 16.3311 6.34394 15.3938 5.40639C14.4563 4.46884 13.3253 4.00006 12 4.00006C10.6748 4.00006 9.54362 4.46893 8.6062 5.40639C7.66878 6.34381 7.19992 7.47501 7.19992 8.80016C7.19992 10.1253 7.66878 11.2565 8.6062 12.1942Z" fill="#22124E"/>
<path d="M19.2003 7.20006C20.0834 7.20006 20.8377 6.88767 21.4626 6.26264C22.0875 5.63765 22.3999 4.88337 22.3999 4.00006C22.3999 3.11685 22.0875 2.36257 21.4626 1.73749C20.8377 1.1125 20.0834 0.799942 19.2003 0.799942C18.3166 0.799942 17.5626 1.1125 16.9376 1.73749C16.3128 2.36257 16.0003 3.11667 16.0003 4.00006C16.0003 4.88354 16.3128 5.63765 16.9376 6.26264C17.5626 6.8875 18.3166 7.20006 19.2003 7.20006Z" fill="#22124E"/>
<path d="M22.4499 7.20023C22.4001 7.20023 22.2189 7.28775 21.9063 7.46275C21.594 7.63783 21.1876 7.81493 20.6877 7.99413C20.1879 8.17316 19.6918 8.26278 19.2003 8.26278C18.6418 8.26278 18.088 8.16703 17.5378 7.97526C17.5792 8.28344 17.6002 8.55853 17.6002 8.8002C17.6002 9.95855 17.2626 11.0252 16.5873 12.0002C17.9376 12.042 19.0415 12.5752 19.9002 13.6005H21.5751C22.2583 13.6005 22.8334 13.4314 23.3 13.094C23.7666 12.7567 24 12.2627 24 11.6128C24.0001 8.67091 23.4837 7.20005 22.4499 7.20023Z" fill="#22124E"/>
<path d="M20.5818 17.3064C20.4943 16.8188 20.3837 16.3666 20.2504 15.9501C20.117 15.5332 19.9378 15.1272 19.7131 14.7314C19.488 14.3358 19.2296 13.9981 18.9379 13.7188C18.646 13.4395 18.2897 13.2169 17.869 13.05C17.4483 12.8834 16.9835 12.8001 16.4753 12.8001C16.3918 12.8001 16.2128 12.8897 15.9377 13.0689C15.6627 13.2479 15.3588 13.4483 15.0253 13.6688C14.6919 13.8893 14.2464 14.0895 13.6877 14.2687C13.129 14.4479 12.5666 14.5375 12.0002 14.5375C11.4336 14.5375 10.871 14.4479 10.3127 14.2687C9.75417 14.0895 9.30847 13.8893 8.97511 13.6688C8.64166 13.4483 8.3376 13.2479 8.06264 13.0689C7.78756 12.8897 7.60849 12.8001 7.52504 12.8001C7.01678 12.8001 6.55221 12.8834 6.13133 13.05C5.71045 13.2169 5.35424 13.4395 5.06261 13.7188C4.77071 13.9978 4.51262 14.3358 4.28744 14.7314C4.06254 15.1272 3.88338 15.5332 3.75002 15.9501C3.6167 16.3666 3.50641 16.8188 3.41876 17.3064C3.3312 17.7939 3.27292 18.2479 3.24377 18.6689C3.21456 19.0898 3.20003 19.5212 3.20003 19.9628C3.20003 20.9627 3.50409 21.7524 4.1124 22.3314C4.72093 22.9103 5.52932 23.2001 6.53745 23.2001H17.4626C18.4708 23.2001 19.2791 22.9103 19.8878 22.3314C20.4961 21.7524 20.8003 20.9627 20.8003 19.9628C20.8003 19.5212 20.7856 19.0899 20.7568 18.6689C20.7272 18.2479 20.669 17.7939 20.5818 17.3064Z" fill="#22124E"/>
<path d="M7.41244 12.0002C6.73741 11.0251 6.39998 9.9585 6.40011 8.80016C6.40011 8.55848 6.421 8.28358 6.46259 7.97522C5.91251 8.16685 5.35836 8.26274 4.80001 8.26274C4.30834 8.26274 3.81263 8.17316 3.31256 7.99409C2.81269 7.81489 2.40631 7.63779 2.09392 7.46271C1.78141 7.28771 1.60002 7.20019 1.55006 7.20019C0.516673 7.20023 0 8.67109 0 11.6128C0 12.2627 0.233359 12.7567 0.699945 13.0939C1.16666 13.4313 1.7417 13.6002 2.42483 13.6002H4.09993C4.95837 12.5752 6.06238 12.0419 7.41244 12.0002Z" fill="#22124E"/>
</g>
<defs>
<clipPath id="clip0_18_121">
<rect width="24" height="24" fill="white"/>
</clipPath>
</defs>
</svg>
