<svg width="24" height="24" viewBox="0 0 24 24" fill="none" xmlns="http://www.w3.org/2000/svg">
<g clip-path="url(#clip0_65_2079)">
<path d="M4.80009 7.20004C5.68357 7.20004 6.43763 6.88766 7.06249 6.26262C7.68756 5.63763 8.00012 4.88335 8.00012 4.00005C8.00012 3.11683 7.68756 2.36255 7.06249 1.73748C6.43763 1.11249 5.68352 0.799927 4.80009 0.799927C3.9167 0.799927 3.16259 1.11249 2.5376 1.73748C1.91266 2.36255 1.6001 3.11666 1.6001 4.00005C1.6001 4.88353 1.91266 5.63763 2.5376 6.26262C3.16259 6.88748 3.9167 7.20004 4.80009 7.20004Z" fill="#FBFBFB"/>
<path d="M8.60623 12.1941C9.54374 13.1313 10.6748 13.6001 12 13.6001C13.3253 13.6001 14.4564 13.1313 15.3938 12.1941C16.3312 11.2563 16.8 10.125 16.8 8.8001C16.8 7.47507 16.3312 6.34388 15.3938 5.40633C14.4564 4.46878 13.3253 4 12 4C10.6748 4 9.54365 4.46886 8.60623 5.40633C7.66881 6.34374 7.19995 7.47494 7.19995 8.8001C7.19995 10.1252 7.66881 11.2564 8.60623 12.1941Z" fill="#FBFBFB"/>
<path d="M19.2003 7.20004C20.0834 7.20004 20.8376 6.88766 21.4626 6.26262C22.0875 5.63763 22.3999 4.88335 22.3999 4.00005C22.3999 3.11683 22.0875 2.36255 21.4626 1.73748C20.8377 1.11249 20.0834 0.799927 19.2003 0.799927C18.3166 0.799927 17.5626 1.11249 16.9376 1.73748C16.3128 2.36255 16.0002 3.11666 16.0002 4.00005C16.0002 4.88353 16.3128 5.63763 16.9376 6.26262C17.5626 6.88748 18.3166 7.20004 19.2003 7.20004Z" fill="#FBFBFB"/>
<path d="M22.45 7.2002C22.4002 7.2002 22.219 7.28772 21.9064 7.46271C21.5942 7.6378 21.1877 7.8149 20.6878 7.9941C20.188 8.17312 19.6919 8.26274 19.2005 8.26274C18.6419 8.26274 18.0881 8.16699 17.5379 7.97523C17.5793 8.28341 17.6003 8.55849 17.6003 8.80017C17.6003 9.95851 17.2627 11.0251 16.5874 12.0002C17.9377 12.042 19.0417 12.5752 19.9003 13.6005H21.5752C22.2585 13.6005 22.8335 13.4314 23.3001 13.0939C23.7667 12.7567 24.0001 12.2627 24.0001 11.6128C24.0002 8.67088 23.4838 7.20002 22.45 7.2002Z" fill="#FBFBFB"/>
<path d="M20.5817 17.3063C20.4942 16.8188 20.3836 16.3666 20.2503 15.95C20.1169 15.5332 19.9377 15.1272 19.713 14.7313C19.488 14.3358 19.2295 13.9981 18.9378 13.7188C18.6459 13.4395 18.2896 13.2169 17.8689 13.05C17.4482 12.8833 16.9834 12.8 16.4752 12.8C16.3918 12.8 16.2127 12.8897 15.9377 13.0689C15.6626 13.2479 15.3587 13.4482 15.0252 13.6688C14.6918 13.8893 14.2464 14.0895 13.6877 14.2687C13.1289 14.4479 12.5665 14.5375 12.0001 14.5375C11.4335 14.5375 10.8709 14.4479 10.3126 14.2687C9.75409 14.0895 9.30839 13.8893 8.97503 13.6688C8.64159 13.4482 8.33752 13.2479 8.06257 13.0689C7.78749 12.8897 7.60842 12.8 7.52497 12.8C7.0167 12.8 6.55213 12.8833 6.13125 13.05C5.71037 13.2169 5.35416 13.4395 5.06253 13.7188C4.77064 13.9978 4.51254 14.3358 4.28737 14.7313C4.06246 15.1272 3.8833 15.5332 3.74994 15.95C3.61663 16.3666 3.50634 16.8188 3.41869 17.3063C3.33112 17.7939 3.27285 18.2479 3.24369 18.6689C3.21449 19.0897 3.19995 19.5211 3.19995 19.9628C3.19995 20.9626 3.50402 21.7524 4.11233 22.3313C4.72085 22.9103 5.52925 23.2001 6.53737 23.2001H17.4625C18.4708 23.2001 19.2791 22.9103 19.8877 22.3313C20.496 21.7524 20.8002 20.9626 20.8002 19.9628C20.8002 19.5211 20.7855 19.0899 20.7568 18.6689C20.7272 18.2479 20.6689 17.7938 20.5817 17.3063Z" fill="#FBFBFB"/>
<path d="M7.41244 12.0002C6.73741 11.0251 6.39998 9.95851 6.40011 8.80017C6.40011 8.55849 6.421 8.28358 6.46259 7.97523C5.91251 8.16686 5.35836 8.26274 4.80001 8.26274C4.30834 8.26274 3.81263 8.17317 3.31256 7.9941C2.81269 7.8149 2.40631 7.6378 2.09392 7.46271C1.78141 7.28772 1.60002 7.2002 1.55006 7.2002C0.516673 7.20024 0 8.6711 0 11.6128C0 12.2627 0.233359 12.7567 0.699945 13.0939C1.16666 13.4314 1.7417 13.6002 2.42483 13.6002H4.09993C4.95837 12.5752 6.06238 12.0419 7.41244 12.0002Z" fill="#FBFBFB"/>
</g>
<defs>
<clipPath id="clip0_65_2079">
<rect width="24" height="24" fill="white"/>
</clipPath>
</defs>
</svg>
