<svg width="100" height="100" viewBox="0 0 100 100" fill="none" xmlns="http://www.w3.org/2000/svg">
<path d="M20 29.6671C23.6812 29.6671 26.8231 28.3655 29.4267 25.7612C32.0312 23.1571 33.3335 20.0143 33.3335 16.3338C33.3335 12.6538 32.0312 9.51095 29.4267 6.90646C26.8231 4.30234 23.681 3 20 3C16.3192 3 13.1771 4.30234 10.573 6.90646C7.96908 9.51095 6.66675 12.653 6.66675 16.3338C6.66675 20.015 7.96908 23.1571 10.573 25.7612C13.1771 28.3648 16.3192 29.6671 20 29.6671Z" fill="#22124E"/>
<path d="M35.8592 50.4759C39.7655 54.3809 44.4784 56.3343 50.0001 56.3343C55.5219 56.3343 60.2347 54.3809 64.1408 50.4759C68.0464 46.5683 69.9998 41.8548 69.9998 36.3342C69.9998 30.8133 68.0464 26.1 64.1408 22.1935C60.2347 18.2871 55.5219 16.3338 50.0001 16.3338C44.4784 16.3338 39.7651 18.2874 35.8592 22.1935C31.9533 26.0994 29.9997 30.8128 29.9997 36.3342C29.9997 41.8557 31.9533 46.5689 35.8592 50.4759Z" fill="#22124E"/>
<path d="M80.0014 29.6671C83.681 29.6671 86.8236 28.3655 89.4276 25.7612C92.0315 23.1571 93.3331 20.0143 93.3331 16.3338C93.3331 12.6538 92.0315 9.51095 89.4276 6.90646C86.8238 4.30234 83.681 3 80.0014 3C76.3194 3 73.1775 4.30234 70.5733 6.90646C67.9699 9.51095 66.6678 12.653 66.6678 16.3338C66.6678 20.015 67.9701 23.1571 70.5733 25.7612C73.1775 28.3648 76.3194 29.6671 80.0014 29.6671Z" fill="#22124E"/>
<path d="M93.541 29.6679C93.3338 29.6679 92.5786 30.0325 91.2762 30.7617C89.9752 31.4912 88.2815 32.2291 86.1988 32.9758C84.1162 33.7217 82.0491 34.0952 80.0014 34.0952C77.674 34.0952 75.3667 33.6962 73.0742 32.8972C73.2466 34.1813 73.3339 35.3274 73.3339 36.3344C73.3339 41.1609 71.9274 45.6051 69.1137 49.6677C74.7399 49.8419 79.3398 52.0637 82.9175 56.3357H89.8964C92.7431 56.3357 95.1391 55.631 97.0832 54.2251C99.0273 52.8199 100 50.7615 100 48.0536C100.001 35.7957 97.8486 29.6671 93.541 29.6679Z" fill="#22124E"/>
<path d="M85.7575 71.7768C85.3928 69.7453 84.9322 67.8612 84.3766 66.1256C83.8209 64.3887 83.0742 62.6971 82.138 61.0476C81.2002 59.3996 80.1233 57.9923 78.908 56.8287C77.6918 55.665 76.2072 54.7373 74.4543 54.0419C72.7013 53.3476 70.7647 53.0006 68.6471 53.0006C68.2994 53.0006 67.5533 53.3741 66.4073 54.1207C65.2611 54.8667 63.9949 55.7014 62.6054 56.6203C61.2162 57.5392 59.3602 58.3733 57.0322 59.1199C54.7041 59.8666 52.3607 60.24 50.0008 60.24C47.6401 60.24 45.2959 59.8666 42.9694 59.1199C40.6424 58.3733 38.7853 57.5392 37.3963 56.6203C36.007 55.7014 34.74 54.8667 33.5944 54.1207C32.4482 53.3741 31.7021 53.0006 31.3544 53.0006C29.2366 53.0006 27.3009 53.3476 25.5472 54.0419C23.7936 54.7373 22.3094 55.665 21.0942 56.8287C19.878 57.9911 18.8026 59.3996 17.8644 61.0476C16.9273 62.6971 16.1808 64.3887 15.6251 66.1256C15.0696 67.8612 14.6101 69.7453 14.2449 71.7768C13.88 73.8083 13.6372 75.6998 13.5157 77.454C13.3941 79.2077 13.3335 81.0051 13.3335 82.8454C13.3335 87.0113 14.6004 90.3019 17.1351 92.7143C19.6706 95.1265 23.0389 96.334 27.2394 96.334H72.761C76.9619 96.334 80.3298 95.1265 82.8659 92.7143C85.4005 90.3019 86.6678 87.0113 86.6678 82.8454C86.6678 81.0051 86.6067 79.2082 86.4868 77.454C86.3635 75.6998 86.1207 73.8081 85.7575 71.7768Z" fill="#22124E"/>
<path d="M30.8852 49.6675C28.0725 45.6049 26.6666 41.1607 26.6671 36.3342C26.6671 35.3273 26.7542 34.1818 26.9275 32.897C24.6355 33.6955 22.3265 34.095 20 34.095C17.9514 34.095 15.886 33.7217 13.8023 32.9756C11.7196 32.2289 10.0263 31.491 8.72468 30.7615C7.42253 30.0324 6.66674 29.6677 6.45859 29.6677C2.1528 29.6679 0 35.7965 0 48.0534C0 50.7614 0.972328 52.8197 2.91644 54.2249C4.86109 55.6308 7.25707 56.3343 10.1035 56.3343H17.0831C20.6599 52.0635 25.2599 49.8416 30.8852 49.6675Z" fill="#22124E"/>
</svg>
